

<svg xmlns="http://www.w3.org/2000/svg" viewBox="0 0 70 70" id="1962298699" class="svg u_1962298699" data-icon-name="wp-bus"> <path d="M58,35.9l-1.7-19.8l0,0C56,12.9,53.2,10,35,10c-18.2,0-21,2.9-21.3,6.1L12,36v15c0,1.3,0.8,2.4,2,2.8V57c0,1.7,1.3,3,3,3h1
	c1.7,0,3-1.3,3-3v-3h28v3c0,1.7,1.3,3,3,3h1c1.7,0,3-1.3,3-3v-3.2c1.2-0.4,2-1.5,2-2.8L58,35.9z M29,14h12c0.6,0,1,0.4,1,1
	s-0.4,1-1,1H29c-0.6,0-1-0.4-1-1S28.4,14,29,14z M20,47c-1.7,0-3-1.3-3-3s1.3-3,3-3c1.7,0,3,1.3,3,3S21.7,47,20,47z M50,47
	c-1.7,0-3-1.3-3-3s1.3-3,3-3c1.7,0,3,1.3,3,3S51.7,47,50,47z M14,36l1.4-16h39.3L56,36H14z"></path> 
</svg>