<svg class="Icolor" xmlns="http://www.w3.org/2000/svg" viewBox="0 0 35.11 24.21" style="max-height: 100%;max-width: 100%;"> <defs> <style>.cls-1{;}</style> 
</defs> 
 <title>Efectivo_4</title> 
 <g id="Capa_2" data-name="Capa 2"> <g id="Capa_1-2" data-name="Capa 1"> <path class="cls-1" d="M33,0H2.08A2.08,2.08,0,0,0,0,2.08V22.14a2.08,2.08,0,0,0,2.08,2.07H33a2.08,2.08,0,0,0,2.08-2.07V2.08A2.08,2.08,0,0,0,33,0ZM5.91,12.66a1,1,0,1,1-.84-1.16A1,1,0,0,1,5.91,12.66Zm11.9,7.7c-3.6.11-6.63-3.49-6.77-8S13.7,4,17.3,3.86s6.63,3.49,6.77,8S21.41,20.24,17.81,20.36Zm13.38-8.49a1,1,0,1,1-2-.32,1,1,0,0,1,2,.32Z"></path> 
 <path class="cls-1" d="M18.24,11h0l-.1-3a5.13,5.13,0,0,1,2.32.86l1-1.51a6.73,6.73,0,0,0-3.37-1.1l0-.82-1,0,0,.81a3.86,3.86,0,0,0-2.49,1,2.9,2.9,0,0,0-.9,2.29,2.59,2.59,0,0,0,.9,2.07,6.79,6.79,0,0,0,2.69,1.06l.1,3.11a5.66,5.66,0,0,1-2.82-1.31L13.38,16a6.89,6.89,0,0,0,4,1.62l0,1.17,1,0,0-1.15a4.16,4.16,0,0,0,2.6-1,2.92,2.92,0,0,0,.92-2.31A2.68,2.68,0,0,0,21,12.1,6.55,6.55,0,0,0,18.24,11Zm-2.32-.82a1.12,1.12,0,0,1-.34-.84A1.13,1.13,0,0,1,16,8.45,1.89,1.89,0,0,1,17.07,8l.09,2.77A3.28,3.28,0,0,1,15.92,10.2Zm3.63,5.17a2.2,2.2,0,0,1-1.2.49L18.26,13a3.51,3.51,0,0,1,1.33.57,1.16,1.16,0,0,1,.38.88A1.14,1.14,0,0,1,19.55,15.37Z"></path> 
</g> 
</g> 
</svg>