<svg class="Icolor" xmlns="http://www.w3.org/2000/svg" viewBox="0 0 36.24 22.35" style="max-height: 100%;max-width: 100%;"> <defs> <style>.cls-1,.cls-2{;}.cls-2{opacity:0.9;}</style> 
</defs> 
 <title>MasterCard</title> 
 <g id="Capa_2" data-name="Capa 2"> <g id="Capa_1-2" data-name="Capa 1"> <path class="cls-1" d="M20.74,5.42c.13.21.25.43.37.65C21,5.85,20.87,5.63,20.74,5.42Z"></path> 
 <path class="cls-1" d="M18.19,2.48c.25.2.49.42.73.65C18.68,2.9,18.44,2.68,18.19,2.48Z"></path> 
 <path class="cls-1" d="M21.31,6.48c.1.22.2.44.28.67C21.51,6.92,21.41,6.7,21.31,6.48Z"></path> 
 <path class="cls-1" d="M13.89,11.18a11.18,11.18,0,0,1,4.22-8.76,11.17,11.17,0,1,0-6.93,19.93,11.11,11.11,0,0,0,6.93-2.42A11.17,11.17,0,0,1,13.89,11.18Z"></path> 
 <path class="cls-1" d="M20,4.36c.17.23.34.46.5.7C20.36,4.82,20.19,4.59,20,4.36Z"></path> 
 <path class="cls-1" d="M19.84,4.12q-.37-.45-.78-.87Q19.46,3.67,19.84,4.12Z"></path> 
 <path class="cls-1" d="M21.75,7.59c.08.23.15.47.22.71C21.9,8.06,21.83,7.82,21.75,7.59Z"></path> 
 <path class="cls-1" d="M22.28,9.94a10.19,10.19,0,0,1,.07,1.24A10.19,10.19,0,0,0,22.28,9.94Z"></path> 
 <path class="cls-1" d="M22.08,8.75c.06.26.1.53.14.8C22.18,9.28,22.14,9,22.08,8.75Z"></path> 
 <path class="cls-1" d="M22,14.05c-.07.24-.14.48-.22.71C21.83,14.53,21.9,14.29,22,14.05Z"></path> 
 <path class="cls-1" d="M21.59,15.2c-.08.23-.18.45-.28.67C21.41,15.65,21.51,15.43,21.59,15.2Z"></path> 
 <path class="cls-1" d="M21.11,16.28c-.12.23-.24.45-.37.66C20.87,16.73,21,16.51,21.11,16.28Z"></path> 
 <path class="cls-1" d="M22.22,12.8c0,.27-.08.54-.14.81C22.14,13.34,22.18,13.07,22.22,12.8Z"></path> 
 <path class="cls-1" d="M18.93,19.21a9.19,9.19,0,0,1-.74.66A9.19,9.19,0,0,0,18.93,19.21Z"></path> 
 <path class="cls-1" d="M20.52,17.29c-.16.25-.33.48-.51.71C20.19,17.77,20.36,17.54,20.52,17.29Z"></path> 
 <path class="cls-1" d="M19.05,19.1a9.38,9.38,0,0,0,.79-.87A9.38,9.38,0,0,1,19.05,19.1Z"></path> 
 <path class="cls-1" d="M22.28,12.41a10.14,10.14,0,0,0,.07-1.23h0A10.14,10.14,0,0,1,22.28,12.41Z"></path> 
 <path class="cls-2" d="M14.64,7.15c.09-.23.19-.45.29-.67C14.83,6.7,14.73,6.92,14.64,7.15Z"></path> 
 <path class="cls-2" d="M14,9.56c0-.28.08-.55.14-.82C14.1,9,14.06,9.28,14,9.56Z"></path> 
 <path class="cls-2" d="M15.13,6.07c.11-.22.24-.44.37-.66C15.37,5.63,15.24,5.84,15.13,6.07Z"></path> 
 <path class="cls-2" d="M14.27,8.31c.07-.25.14-.49.22-.72C14.41,7.82,14.34,8.06,14.27,8.31Z"></path> 
 <path class="cls-2" d="M17.18,3.25q-.41.42-.78.87Q16.77,3.67,17.18,3.25Z"></path> 
 <path class="cls-2" d="M17.31,3.13c.24-.22.48-.44.74-.65C17.79,2.69,17.55,2.91,17.31,3.13Z"></path> 
 <path class="cls-2" d="M15.72,5.06c.16-.25.33-.48.51-.71C16.05,4.58,15.88,4.81,15.72,5.06Z"></path> 
 <path class="cls-2" d="M13.89,11.18A10.19,10.19,0,0,1,14,9.94a10.19,10.19,0,0,0-.07,1.24A10,10,0,0,0,14,12.41,10,10,0,0,1,13.89,11.18Z"></path> 
 <path class="cls-2" d="M14.93,15.88c-.1-.23-.2-.45-.29-.68C14.73,15.43,14.83,15.65,14.93,15.88Z"></path> 
 <path class="cls-2" d="M16.4,18.23a9.38,9.38,0,0,0,.79.87A9.38,9.38,0,0,1,16.4,18.23Z"></path> 
 <path class="cls-2" d="M18.05,19.88c-.26-.21-.51-.44-.75-.67C17.54,19.44,17.79,19.67,18.05,19.88Z"></path> 
 <path class="cls-2" d="M25.06,0a11.11,11.11,0,0,0-6.93,2.42,11.19,11.19,0,0,1,0,17.51A11.17,11.17,0,1,0,25.06,0Z"></path> 
 <path class="cls-2" d="M16.23,18c-.18-.23-.35-.47-.52-.72C15.88,17.54,16.05,17.77,16.23,18Z"></path> 
 <path class="cls-2" d="M14.16,13.61c-.06-.27-.1-.54-.14-.82C14.06,13.07,14.1,13.34,14.16,13.61Z"></path> 
 <path class="cls-2" d="M15.5,16.94a7,7,0,0,1-.37-.66A7,7,0,0,0,15.5,16.94Z"></path> 
 <path class="cls-2" d="M14.49,14.77c-.08-.24-.15-.48-.22-.73C14.34,14.29,14.41,14.53,14.49,14.77Z"></path> 
</g> 
</g> 
</svg>