<svg class="Icolor" xmlns="http://www.w3.org/2000/svg" viewBox="0 0 28.11 21.19" style="max-height: 100%;max-width: 100%;"> <defs> <style>.cls-1{;}</style> 
</defs> 
 <title>Transferencia_4</title> 
 <g id="Capa_2" data-name="Capa 2"> <g id="Capa_1-2" data-name="Capa 1"> <path class="cls-1" d="M18.94,21.12l.93-.06L19,20.92l-1-.17a10.52,10.52,0,0,1-1.3-.37,6.91,6.91,0,0,1-1.45-.57A8.68,8.68,0,0,1,13.68,19L13,18.44c-.23-.19-.44-.42-.66-.63a9.48,9.48,0,0,1-1.22-1.38,14.66,14.66,0,0,1-1-1.53,17.32,17.32,0,0,1-.73-1.6,12.54,12.54,0,0,1-.52-1.57c-.16-.49-.24-1-.35-1.43-.05-.28-.09-.54-.13-.79l.23.08a12.1,12.1,0,0,0,2.23.53q.59.08,1.2.12a9.4,9.4,0,0,0,1.29,0,8.23,8.23,0,0,0-.58-1.15c-.21-.35-.44-.68-.67-1a12.64,12.64,0,0,0-1.51-1.72A16.45,16.45,0,0,0,7,3.72l-.16-.09a2.18,2.18,0,0,0-2.51.28A17.34,17.34,0,0,0,1.8,6.75a13.34,13.34,0,0,0-1,1.73,9.13,9.13,0,0,0-.78,2,10.5,10.5,0,0,0,2.13-.37A12.89,12.89,0,0,0,4,9.47c.19.57.44,1.26.77,2,.24.5.47,1.05.79,1.6a15.59,15.59,0,0,0,1,1.7c.35.58.84,1.12,1.27,1.69A18.89,18.89,0,0,0,9.38,18a11,11,0,0,0,1.76,1.28,10.28,10.28,0,0,0,.91.53l.94.4a8.86,8.86,0,0,0,1.82.57,6.91,6.91,0,0,0,1.66.27,10.32,10.32,0,0,0,1.4.09Z"></path> 
 <path class="cls-1" d="M23.57,17.66A16.43,16.43,0,0,0,26.2,14.9a13.56,13.56,0,0,0,1.08-1.69,10.09,10.09,0,0,0,.83-2,9.51,9.51,0,0,0-2.14.31,11.9,11.9,0,0,0-1.86.6c-.17-.58-.41-1.27-.71-2.06C23.17,9.55,23,9,22.67,8.44a18,18,0,0,0-1-1.73A21,21,0,0,0,20.47,5,18.83,18.83,0,0,0,19,3.39a11.62,11.62,0,0,0-1.72-1.33c-.3-.18-.58-.4-.89-.55l-.93-.44a9.62,9.62,0,0,0-1.8-.62A7.57,7.57,0,0,0,12,.13,12.63,12.63,0,0,0,10.57,0L9.49,0l-.92,0,.91.17,1,.2a8.93,8.93,0,0,1,1.28.41,6.14,6.14,0,0,1,1.44.62,7,7,0,0,1,1.46.9l.71.53c.23.19.43.44.65.65A8.85,8.85,0,0,1,17.22,5a14.54,14.54,0,0,1,.94,1.55,17.12,17.12,0,0,1,.68,1.63,13.41,13.41,0,0,1,.48,1.58c.14.5.21,1,.3,1.44,0,.29.07.55.11.79l-.23-.08a12.8,12.8,0,0,0-2.21-.6q-.59-.09-1.2-.15a7.9,7.9,0,0,0-1.29,0,9.67,9.67,0,0,0,.54,1.17c.21.35.42.7.64,1a14.17,14.17,0,0,0,1.46,1.77,16.89,16.89,0,0,0,3.45,2.71l.16.09A2.18,2.18,0,0,0,23.57,17.66Z"></path> 
</g> 
</g> 
</svg>