<svg class="Icolor" xmlns="http://www.w3.org/2000/svg" viewBox="0 0 47 14.46"> <defs></defs> 
 <title>Visa_4</title> 
 <g id="Capa_2" data-name="Capa 2"> <g id="Capa_1-2" data-name="Capa 1"> <polygon class="cls-1" points="19.21 0.23 16.84 14.24 20.68 14.24 23.05 0.23 19.21 0.23"></polygon> 
 <path class="cls-1" d="M30.57,5.87c-1.35-.65-2.17-1.08-2.16-1.74s.7-1.2,2.2-1.2a7.21,7.21,0,0,1,2.88.53l.34.16.52-3A9.8,9.8,0,0,0,30.91,0c-3.8,0-6.47,1.9-6.5,4.62,0,2,1.91,3.14,3.37,3.81s2,1.12,2,1.74c0,.94-1.19,1.37-2.3,1.37a8.13,8.13,0,0,1-3.61-.74l-.5-.22-.54,3.13a12.33,12.33,0,0,0,4.28.75c4,0,6.66-1.88,6.69-4.79C33.81,8.08,32.78,6.87,30.57,5.87Z"></path> 
 <path class="cls-1" d="M43.84.23H40.9a1.91,1.91,0,0,0-2,1.19L33.22,14.24h4.06l.8-2.15h4.85l.46,2.15H47ZM39.15,9.29h0l1.53-3.92S41,4.56,41.19,4l.26,1.21s.74,3.35.89,4Z"></path> 
 <path class="cls-1" d="M13.67.23,9.83,9.83,9.49,7.91h0L8.1,1.42A1.64,1.64,0,0,0,6.33.23H0V.45A16.29,16.29,0,0,1,4.2,2.11L7.57,14.24h4.07l6.1-14Z"></path> 
</g> 
</g> 
</svg>