<svg xmlns="http://www.w3.org/2000/svg" title="WhatsApp" class="tamanoIconoW2" id="Layer_2" viewBox="0 0 75.51 75.1"> <g id="Layer_1-2"> <g> <path d="M37.96,0C17.22,0,.4,16.81,.4,37.55c0,6.64,1.73,12.87,4.75,18.28L0,75.08l19.02-5.1c5.56,3.25,12.02,5.13,18.93,5.13,20.74,0,37.55-16.81,37.55-37.55S58.69,0,37.96,0Z" style="fill:#ececec;"></path> 
 <path d="M37.92,6.41c-17.2,0-31.15,13.94-31.15,31.15,0,5.51,2.53,12.46,5.04,16.95l-2.54,11.57,11.18-2.7c4.61,2.7,11.74,5.33,17.47,5.33,17.2,0,31.15-13.94,31.15-31.15S55.12,6.41,37.92,6.41Z" style="fill:#65be6c;"></path> 
 <path d="M20.33,27.71c-.1-2.72,1.56-5.29,4.08-7.37,.48-.4,1.24-.57,1.89-.63,.82-.08,1.67,0,2.48,.14,.36,.07,.81,.41,.97,.74,1.27,2.73,2.47,5.48,3.7,8.22,.31,.68,.04,1.24-.39,1.75-.85,.98-1.7,1.96-2.59,2.9-.54,.57-.58,1.12-.21,1.79,3,5.39,7.54,8.97,13.21,11.21,.64,.25,1.08,.03,1.46-.46,.93-1.2,1.86-2.4,2.8-3.59,.69-.87,1.09-.98,2.09-.52,2.51,1.15,5.02,2.31,7.53,3.47,.9,.42,1.1,.83,.94,1.81-.39,2.46-1.16,4.72-3.31,6.23-2.61,1.82-5.48,2.27-8.53,1.49-5.47-1.39-10.35-3.95-14.64-7.62-3.68-3.14-6.83-6.74-9.2-10.97-1.37-2.44-2.26-5.03-2.27-8.59Z" style="fill:#fcfcfb;"></path> 
</g> 
</g> 
</svg>